<svg xmlns="http://www.w3.org/2000/svg" width="746.586" height="563.729" viewBox="0 0 746.586 563.729">
  <g id="Group_41" data-name="Group 41" transform="translate(-991.891 -167.675)">
    <path id="white-blob" d="M505.743,175.606c-47.864-1.782-93.45-18.378-136.98-36.541S282.11,100.793,235.43,91.172c-30.048-6.19-64.408-7.07-88.62,10.235-23.333,16.684-30.861,45.4-34.885,72.069-3.047,20.071-4.837,41.193,3.505,59.978,5.791,13.046,16.078,24.006,23.192,36.5,24.753,43.471,7.255,97.081-19.569,139.524-12.572,19.909-27.171,38.9-36.881,60.1s-14.222,45.482-5.746,67.107c8.416,21.447,28.48,37.525,50.216,48.81,44.144,22.993,96.142,29.582,146.882,33.28,112.279,8.253,225.164,4.681,337.746,1.1,41.659-1.324,83.51-2.67,124.5-9.614,22.763-3.846,46.259-9.947,62.781-24.671,20.981-18.688,26.18-50.341,12.121-73.778-23.577-39.315-88.746-49.084-105.246-91.275-9.067-23.222.244-49.091,13.43-70.627,28.273-46.207,75.678-86.742,78.17-139.561,1.716-36.238-21.07-72.594-56.3-89.759-36.933-17.993-88.14-15.73-115.37,14.051C597.307,165.422,548,177.189,505.743,175.606Z" transform="translate(919.934 80.56)" fill="#fff" opacity="0.15"/>
    <g id="home-header-img" transform="translate(236.316 174.845)">
      <path id="Path_74" data-name="Path 74" d="M111.33,609.878h8.105l3.857-31.263H111.33Z" transform="translate(835.865 -79.88)" fill="#a0616a"/>
      <path id="Path_75" data-name="Path 75" d="M398.6,741.945l12.949-.773v5.548l12.311,8.5a3.466,3.466,0,0,1-1.969,6.317H406.471l-2.657-5.488-1.038,5.488h-5.813Z" transform="translate(545.954 -217.499)" fill="#2f2e41"/>
      <path id="Path_76" data-name="Path 76" d="M187.143,609.878h8.105l3.858-31.263H187.143Z" transform="translate(824.879 -79.88)" fill="#a0616a"/>
      <path id="Path_77" data-name="Path 77" d="M474.41,741.945l12.949-.773v5.548l12.311,8.5a3.466,3.466,0,0,1-1.969,6.317H482.285l-2.657-5.488-1.038,5.488h-5.813Z" transform="translate(534.967 -217.499)" fill="#2f2e41"/>
      <path id="Path_78" data-name="Path 78" d="M118.834,384.155l43.094,1.08V338.66l-35.4.175Z" transform="translate(834.778 -45.106)" fill="#a0616a"/>
      <path id="Path_79" data-name="Path 79" d="M449.74,486.042l5.761,19.193,11.958,25.175L492.72,675.825l-3.862,20.115-37.448-1.573L434.731,569.688l-.268,17.212-.13,8.331s6.083,54.186-1.008,64.7-.145,9.279-.145,9.279l-.338,21.692-44.372.315,9.789-62.453s4.971-3.925,2.311-7.87,2.578-8.777,2.578-8.777L400.8,563.364s2.6-8.421-.458-9.516-.4-8.337-.4-8.337l-.455-9.437,10.066-38.062Z" transform="translate(547.184 -180.526)" fill="#2f2e41"/>
      <path id="Path_80" data-name="Path 80" d="M409.8,460l-4.406-13.217-3.147-4.406-1.259-12.588c0-33.987,7.581-28.327,7.581-28.327l9.889-11.953,11.25-.352,8.89-.278,7.391,12.273,10.7,3.776,4.19,21.771-7.652,23.23.337-1.726c3.6,6.649,2.686,7.65-.3,12.642l-.148,1.8c-.351,4.262,2.62,5-1.562,5.893-35.913,7.7-39.334,23.087-43.609,17.1-.952-1.333,3.088-17.239,1.71-17.1C405.879,468.919,409.8,460,409.8,460Z" transform="translate(545.371 -166.446)" fill="#41b883"/>
      <circle id="Ellipse_9" data-name="Ellipse 9" cx="18.671" cy="18.671" r="18.671" transform="translate(958.505 180.867)" fill="#a0616a"/>
      <path id="Path_81" data-name="Path 81" d="M390.632,506.743l1.912-65.773L405,446.418,398.788,506.5a6.206,6.206,0,1,1-8.156.24Z" transform="translate(547.16 -173.995)" fill="#a0616a"/>
      <path id="Path_82" data-name="Path 82" d="M406.621,403.2l-1.448.457a19.087,19.087,0,0,0-13.34,18.2l-2.724,12.473c3.946,6.77,9.78,10.125,17.9,9.34Z" transform="translate(547.092 -168.521)" fill="#41b883"/>
      <path id="Path_83" data-name="Path 83" d="M502.721,428.7a6.2,6.2,0,1,0-11.885,2.472l-12.211,19.241v-11.54l-13.774,1.489,1.928,20.567a7.764,7.764,0,0,0,14.491,3.091l16.505-29.246a6.2,6.2,0,0,0,4.945-6.073Z" transform="translate(536.115 -171.317)" fill="#a0616a"/>
      <path id="Path_84" data-name="Path 84" d="M463.483,406.814l1.385.437a18.26,18.26,0,0,1,12.761,17.412l2.606,11.932c-3.775,6.477-9.355,9.686-17.124,8.934Z" transform="translate(536.368 -169.045)" fill="#41b883"/>
      <path id="Path_85" data-name="Path 85" d="M408.97,362.632c1.043-3.969,1.435-8.123,2.941-11.94a21.672,21.672,0,0,1,38.918-2.9,14.762,14.762,0,0,1,2.136,9.6c-.594,3.644-3.008,7.108-2.252,10.722.506,2.418,2.332,4.3,3.782,6.3s2.595,4.644,1.55,6.882c-1.135,2.431-4.286,3.149-6.959,2.921s-5.35-1.091-7.988-.607l1.256-4.924-9.382,9.031c.346-3.133-1.109-6.139-2.113-9.127s-1.472-6.589.517-9.034c1.189-1.462,3.022-2.2,4.658-3.138s3.259-2.339,3.426-4.216c.206-2.322-1.874-4.185-3.917-5.307s-4.4-2.064-5.542-4.093l2.469,5.3a15.6,15.6,0,0,1-12.939-8.762l-1.128.738c-9.376,10.514,2.631,26.268-4.408,31.78C417.087,376.345,407.365,368.744,408.97,362.632Z" transform="translate(544.24 -158.924)" fill="#2f2e41"/>
      <rect id="Rectangle_77" data-name="Rectangle 77" width="277.942" height="506.434" rx="50" transform="matrix(0.961, -0.278, 0.278, 0.961, 978.35, 70.073)" fill="#3f3d56"/>
      <path id="Path_86" data-name="Path 86" d="M661.372,140.7l-22.4,6.481,2.239,7.739a13.749,13.749,0,0,1-9.386,17.028L531.742,200.9a13.749,13.749,0,0,1-17.028-9.386l-2.239-7.739-22.4,6.481A45.567,45.567,0,0,0,459,246.629L572.243,638.061a45.566,45.566,0,0,0,56.371,31.073l171.3-49.557a45.566,45.566,0,0,0,31.073-56.371L717.742,171.774a45.567,45.567,0,0,0-56.37-31.073Z" transform="translate(537.223 -130.221)" fill="#fff"/>
      <path id="Path_87" data-name="Path 87" d="M468.685,323.918a3.424,3.424,0,0,1-4.236-2.335l-1.9-6.571a3.42,3.42,0,0,1,6.571-1.9l1.9,6.571A3.424,3.424,0,0,1,468.685,323.918Z" transform="translate(536.469 -155.107)" fill="#3f3d56"/>
      <path id="Path_88" data-name="Path 88" d="M479.52,361.372a3.424,3.424,0,0,1-4.236-2.335l-5.233-18.088a3.42,3.42,0,1,1,6.571-1.9l5.233,18.088a3.424,3.424,0,0,1-2.335,4.236Z" transform="translate(535.382 -158.866)" fill="#3f3d56"/>
      <path id="Path_89" data-name="Path 89" d="M488.685,393.051a3.424,3.424,0,0,1-4.236-2.335l-5.233-18.088a3.42,3.42,0,1,1,6.571-1.9l5.233,18.088a3.424,3.424,0,0,1-2.335,4.236Z" transform="translate(534.053 -163.457)" fill="#3f3d56"/>
      <path id="Path_90" data-name="Path 90" d="M797.485,280.192a3.424,3.424,0,0,1-4.236-2.335L780.48,233.721a3.42,3.42,0,0,1,6.571-1.9l12.769,44.137a3.424,3.424,0,0,1-2.335,4.236Z" transform="translate(490.395 -143.327)" fill="#3f3d56"/>
      <path id="Path_91" data-name="Path 91" d="M542.538,312.33a1.279,1.279,0,0,1-.913-.077l-16.592-7.993a1.283,1.283,0,0,1-.6-1.712l7.993-16.592a1.283,1.283,0,0,1,2.311,1.113L527.3,302.506l15.437,7.437a1.283,1.283,0,0,1-.2,2.388Z" transform="translate(527.499 -151.425)" fill="#41b883"/>
      <path id="Path_92" data-name="Path 92" d="M555.543,308.931a1.283,1.283,0,0,1-1.42-1.95l9.6-14.195-14.195-9.6a1.282,1.282,0,0,1,1.437-2.125l15.257,10.315a1.282,1.282,0,0,1,.344,1.781l-10.316,15.258a1.275,1.275,0,0,1-.7.513Z" transform="translate(523.926 -150.79)" fill="#41b883"/>
      <path id="Path_93" data-name="Path 93" d="M715.568,267.626,519.843,324.25a11.863,11.863,0,0,1-14.676-8.09l-11-38.017a11.863,11.863,0,0,1,8.09-14.676l195.726-56.624a11.863,11.863,0,0,1,14.676,8.09l11,38.017A11.863,11.863,0,0,1,715.568,267.626Zm-212.835-2.517a10.152,10.152,0,0,0-6.923,12.558l11,38.017a10.152,10.152,0,0,0,12.558,6.923l195.726-56.624a10.151,10.151,0,0,0,6.922-12.558l-11-38.017a10.152,10.152,0,0,0-12.558-6.923Z" transform="translate(531.935 -139.998)" fill="#3f3d56"/>
      <path id="Path_94" data-name="Path 94" d="M627.737,265.528l-32.856,9.505a3.42,3.42,0,1,1-1.9-6.571l32.856-9.505a3.42,3.42,0,0,1,1.9,6.571Z" transform="translate(517.905 -147.598)" fill="#e6e6e6"/>
      <path id="Path_95" data-name="Path 95" d="M704.352,262.761,600.034,292.941a3.42,3.42,0,0,1-1.9-6.571L702.45,256.19a3.42,3.42,0,1,1,1.9,6.571Z" transform="translate(517.159 -147.197)" fill="#e6e6e6"/>
      <path id="Path_96" data-name="Path 96" d="M629.3,616.316a1.277,1.277,0,0,1-.913-.077l-16.592-7.993a1.282,1.282,0,0,1-.6-1.712l7.993-16.592a1.283,1.283,0,1,1,2.311,1.113l-7.436,15.437,15.437,7.436a1.283,1.283,0,0,1-.2,2.388Z" transform="translate(514.926 -195.478)" fill="#41b883"/>
      <path id="Path_97" data-name="Path 97" d="M642.3,612.917a1.283,1.283,0,0,1-1.42-1.95l9.6-14.195-14.195-9.6a1.282,1.282,0,1,1,1.437-2.125l15.257,10.316a1.283,1.283,0,0,1,.344,1.781L643.009,612.4a1.279,1.279,0,0,1-.705.513Z" transform="translate(511.353 -194.843)" fill="#41b883"/>
      <path id="Path_98" data-name="Path 98" d="M817.676,620.573,621.951,677.2a11.863,11.863,0,0,1-14.677-8.09l-28.345-97.979a11.863,11.863,0,0,1,8.09-14.676l195.726-56.624a11.863,11.863,0,0,1,14.676,8.09L825.766,605.9a11.864,11.864,0,0,1-8.09,14.676ZM587.494,558.094a10.151,10.151,0,0,0-6.922,12.558l28.346,97.979a10.151,10.151,0,0,0,12.558,6.922L817.2,618.93a10.151,10.151,0,0,0,6.923-12.558l-28.346-97.978a10.151,10.151,0,0,0-12.558-6.923Z" transform="translate(519.651 -182.457)" fill="#3f3d56"/>
      <path id="Path_99" data-name="Path 99" d="M714.5,569.513l-32.856,9.505a3.42,3.42,0,0,1-1.9-6.571l32.856-9.505a3.42,3.42,0,0,1,1.9,6.571Z" transform="translate(505.332 -191.651)" fill="#e6e6e6"/>
      <path id="Path_100" data-name="Path 100" d="M791.113,566.747,686.8,596.927a3.42,3.42,0,0,1-1.9-6.571l104.318-30.179a3.42,3.42,0,0,1,1.9,6.571Z" transform="translate(504.585 -191.25)" fill="#e6e6e6"/>
      <rect id="Rectangle_78" data-name="Rectangle 78" width="14.905" height="7.801" rx="2.88" transform="matrix(0.961, -0.278, 0.278, 0.961, 1055.507, 236.702)" fill="#e6e6e6"/>
      <rect id="Rectangle_79" data-name="Rectangle 79" width="14.905" height="7.801" rx="2.88" transform="matrix(0.961, -0.278, 0.278, 0.961, 1133.564, 214.12)" fill="#41b883"/>
      <rect id="Rectangle_80" data-name="Rectangle 80" width="14.905" height="7.801" rx="2.88" transform="matrix(0.961, -0.278, 0.278, 0.961, 1155.68, 207.721)" fill="#e6e6e6"/>
      <rect id="Rectangle_81" data-name="Rectangle 81" width="51.958" height="7.801" rx="2.88" transform="matrix(0.961, -0.278, 0.278, 0.961, 1076.559, 229.935)" fill="#e6e6e6"/>
      <rect id="Rectangle_82" data-name="Rectangle 82" width="51.958" height="7.801" rx="2.88" transform="matrix(0.961, -0.278, 0.278, 0.961, 1180.635, 199.825)" fill="#f2f2f2"/>
      <rect id="Rectangle_83" data-name="Rectangle 83" width="14.905" height="7.801" rx="2.88" transform="matrix(0.961, -0.278, 0.278, 0.961, 1060.681, 253.534)" fill="#e6e6e6"/>
      <rect id="Rectangle_84" data-name="Rectangle 84" width="14.905" height="7.801" rx="2.88" transform="matrix(0.961, -0.278, 0.278, 0.961, 1138.738, 230.951)" fill="#41b883"/>
      <rect id="Rectangle_85" data-name="Rectangle 85" width="14.905" height="7.801" rx="2.88" transform="matrix(0.961, -0.278, 0.278, 0.961, 1160.854, 224.553)" fill="#e6e6e6"/>
      <rect id="Rectangle_86" data-name="Rectangle 86" width="51.958" height="7.801" rx="2.88" transform="matrix(0.961, -0.278, 0.278, 0.961, 1081.732, 246.766)" fill="#e6e6e6"/>
      <rect id="Rectangle_87" data-name="Rectangle 87" width="51.958" height="7.801" rx="2.88" transform="matrix(0.961, -0.278, 0.278, 0.961, 1185.807, 216.656)" fill="#f2f2f2"/>
      <rect id="Rectangle_88" data-name="Rectangle 88" width="14.905" height="7.801" rx="2.88" transform="matrix(0.961, -0.278, 0.278, 0.961, 1106.924, 258.483)" fill="#e6e6e6"/>
      <rect id="Rectangle_89" data-name="Rectangle 89" width="14.905" height="7.801" rx="2.88" transform="matrix(0.961, -0.278, 0.278, 0.961, 1184.981, 235.9)" fill="#41b883"/>
      <rect id="Rectangle_90" data-name="Rectangle 90" width="14.905" height="7.801" rx="2.88" transform="matrix(0.961, -0.278, 0.278, 0.961, 1207.097, 229.502)" fill="#e6e6e6"/>
      <rect id="Rectangle_91" data-name="Rectangle 91" width="51.958" height="7.801" rx="2.88" transform="matrix(0.961, -0.278, 0.278, 0.961, 1127.974, 251.716)" fill="#e6e6e6"/>
      <rect id="Rectangle_92" data-name="Rectangle 92" width="51.958" height="7.801" rx="2.88" transform="matrix(0.961, -0.278, 0.278, 0.961, 1232.051, 221.606)" fill="#f2f2f2"/>
      <rect id="Rectangle_93" data-name="Rectangle 93" width="14.905" height="7.801" rx="2.88" transform="matrix(0.961, -0.278, 0.278, 0.961, 1079.658, 320.088)" fill="#41b883"/>
      <rect id="Rectangle_94" data-name="Rectangle 94" width="14.905" height="7.801" rx="2.88" transform="matrix(0.961, -0.278, 0.278, 0.961, 1101.774, 313.69)" fill="#e6e6e6"/>
      <rect id="Rectangle_95" data-name="Rectangle 95" width="51.958" height="7.801" rx="2.88" transform="matrix(0.961, -0.278, 0.278, 0.961, 1127.089, 307.043)" fill="#f2f2f2"/>
      <rect id="Rectangle_96" data-name="Rectangle 96" width="14.905" height="7.801" rx="2.88" transform="matrix(0.961, -0.278, 0.278, 0.961, 1131.722, 286.698)" fill="#41b883"/>
      <rect id="Rectangle_97" data-name="Rectangle 97" width="14.905" height="7.801" rx="2.88" transform="matrix(0.961, -0.278, 0.278, 0.961, 1153.838, 280.3)" fill="#41b883"/>
      <rect id="Rectangle_98" data-name="Rectangle 98" width="51.958" height="7.801" rx="2.88" transform="matrix(0.961, -0.278, 0.278, 0.961, 1075.077, 303.762)" fill="#e6e6e6"/>
      <rect id="Rectangle_99" data-name="Rectangle 99" width="51.958" height="7.801" rx="2.88" transform="matrix(0.961, -0.278, 0.278, 0.961, 1179.153, 273.652)" fill="#f2f2f2"/>
      <rect id="Rectangle_100" data-name="Rectangle 100" width="14.905" height="7.801" rx="2.88" transform="matrix(0.961, -0.278, 0.278, 0.961, 1111.479, 274.226)" fill="#e6e6e6"/>
      <rect id="Rectangle_101" data-name="Rectangle 101" width="14.905" height="7.801" rx="2.88" transform="matrix(0.961, -0.278, 0.278, 0.961, 1189.535, 251.644)" fill="#41b883"/>
      <rect id="Rectangle_102" data-name="Rectangle 102" width="14.905" height="7.801" rx="2.88" transform="matrix(0.961, -0.278, 0.278, 0.961, 1211.652, 245.246)" fill="#e6e6e6"/>
      <rect id="Rectangle_103" data-name="Rectangle 103" width="51.958" height="7.801" rx="2.88" transform="matrix(0.961, -0.278, 0.278, 0.961, 1132.891, 268.708)" fill="#e6e6e6"/>
      <rect id="Rectangle_104" data-name="Rectangle 104" width="51.958" height="7.801" rx="2.88" transform="matrix(0.961, -0.278, 0.278, 0.961, 1236.967, 238.599)" fill="#f2f2f2"/>
      <circle id="Ellipse_10" data-name="Ellipse 10" cx="3.848" cy="3.848" r="3.848" transform="translate(1096.112 277.288)" fill="#41b883"/>
      <circle id="Ellipse_11" data-name="Ellipse 11" cx="3.848" cy="3.848" r="3.848" transform="translate(1091.597 261.682)" fill="#41b883"/>
      <path id="Path_101" data-name="Path 101" d="M602.854,179.225l-25.464,7.367a2.138,2.138,0,0,1-1.188-4.107l25.463-7.367a2.138,2.138,0,1,1,1.188,4.107Z" transform="translate(520.202 -135.456)" fill="#fff"/>
      <circle id="Ellipse_12" data-name="Ellipse 12" cx="1.71" cy="1.71" r="1.71" transform="translate(1133.895 36.203)" fill="#fff"/>
      <path id="Path_104" data-name="Path 104" d="M713.855,648.988a14.6,14.6,0,1,1,9.97-18.087A14.6,14.6,0,0,1,713.855,648.988Z" transform="translate(502.735 -199.99)" fill="#e6e6e6"/>
      <path id="Path_105" data-name="Path 105" d="M716.224,633.268l-4.151,1.2-1.2-4.151a1.441,1.441,0,1,0-2.768.8l1.2,4.151-4.151,1.2a1.441,1.441,0,0,0,.8,2.768l4.151-1.2,1.2,4.151a1.441,1.441,0,0,0,2.768-.8l-1.2-4.151,4.151-1.2a1.441,1.441,0,1,0-.8-2.768Z" transform="translate(501.442 -201.284)" fill="#fff"/>
      <path id="Path_106" data-name="Path 106" d="M761.853,635.1a14.6,14.6,0,1,1,9.97-18.087A14.6,14.6,0,0,1,761.853,635.1Z" transform="translate(495.78 -197.978)" fill="#e6e6e6"/>
      <path id="Path_107" data-name="Path 107" d="M764.223,620.048l-4.151,1.2-2.768.8-4.151,1.2a1.441,1.441,0,0,0,.8,2.768l4.151-1.2,2.768-.8,4.151-1.2a1.441,1.441,0,1,0-.8-2.768Z" transform="translate(494.486 -199.938)" fill="#fff"/>
      <path id="Path_108" data-name="Path 108" d="M809.852,621.216a14.6,14.6,0,1,1,9.97-18.087A14.6,14.6,0,0,1,809.852,621.216Z" transform="translate(488.824 -195.966)" fill="#e6e6e6"/>
      <path id="Path_109" data-name="Path 109" d="M814.786,605.378l-5.656-4.654a1.228,1.228,0,1,0-1.56,1.9l3.658,3.01-3.157.913-2.768.8-4.151,1.2a1.441,1.441,0,0,0,.8,2.768l4.151-1.2,2.768-.8,3.284-.95-1.559,4.72a1.228,1.228,0,1,0,2.332.77l2.3-6.955a1.62,1.62,0,0,0-.439-1.518Z" transform="translate(487.53 -197.105)" fill="#fff"/>
    </g>
  </g>
</svg>
