<svg xmlns="http://www.w3.org/2000/svg" width="157.522" height="332.389" viewBox="0 0 157.522 332.389">
  <path id="Path_220" data-name="Path 220" d="M652.312,360.739c1.254,10.12,8.266,18.463,18.463,18.463a18.463,18.463,0,0,0,18.463-18.463c0-10.2-8.31-17.521-18.463-18.463C660,341.275,650.7,347.747,652.312,360.739Z" transform="translate(-611.433 -333.038)" fill="#2f2e41"/>
  <path id="Path_221" data-name="Path 221" d="M397.1,676.258h7.031l3.345-27.12H397.1Z" transform="translate(-329.21 -351.203)" fill="#ffb6b6"/>
  <path id="Path_222" data-name="Path 222" d="M690.081,792.606H711.7v-.273a8.416,8.416,0,0,0-8.415-8.416h0l-3.949-3-7.369,3H690.08Z" transform="translate(-622.433 -460.216)" fill="#2f2e41"/>
  <path id="Path_223" data-name="Path 223" d="M358.1,676.258h7.031l3.345-27.12H358.1Z" transform="translate(-317.906 -351.203)" fill="#ffb6b6"/>
  <path id="Path_224" data-name="Path 224" d="M651.081,792.606H672.7v-.273a8.416,8.416,0,0,0-8.415-8.416h0l-3.949-3-7.369,3H651.08Z" transform="translate(-611.129 -460.216)" fill="#2f2e41"/>
  <path id="Path_225" data-name="Path 225" d="M701.084,545.587l4.971,17.043L700.2,634.812s3.016,4.513.885,4.513-4.862,1-3.141,3.7-4.161,12.371-4.161,12.371l-8.32,51.4-10.6-.157s-5.39-3-2.365-6.039,5.155-3.036,2.315-5.877-2.841-1.985-2.841-4.188-2.846-29.127,3.9-39.454l-2.034-42.107-4.79,41.3-9.862,55.1-10.213-.084s-4.717-4.547-4.709-7.912,2.915-3.645.752-5.636-2.163-32.571,4.228-49.569c0,0,3.615-9.5-.008-12.752s0-6.978,0-6.978,5.739-2.075-.005-8.052-.031-48.253-.031-48.253-6.279-17.065.08-23.775S701.084,545.587,701.084,545.587Z" transform="translate(-608.995 -390.39)" fill="#2f2e41"/>
  <path id="Path_226" data-name="Path 226" d="M598.375,580.457l8.869-21.433,6.988,3.882-4.22,21.8a7.765,7.765,0,1,1-11.637-4.252Z" transform="translate(-594.821 -395.895)" fill="#ffb6b6"/>
  <path id="Path_227" data-name="Path 227" d="M801.472,344.382l-13.495,18.866-5.926-5.364,9.05-20.28a7.765,7.765,0,1,1,10.371,6.778Z" transform="translate(-649.093 -329.308)" fill="#ffb6b6"/>
  <path id="Path_228" data-name="Path 228" d="M690.468,492.625c8.753,13.576-35.245,30.806-52.127,23.889-2.956-1.211-13.125-5.212-6.174-10.758s-.806-6.327-.989-9.937c-.123-2.414,1.746-7.709-.2-7.482s-4.232-3.111.015-4.548.045-2.747.083-4.11c.406-14.881,11.824-38.551,11.824-38.551l-20.573,52.59s.152,9.1-2.472,6.318-2.433,6.218-2.433,6.218-3.9,2.723-1.658,4.238-2.415,6.174-2.415,6.174l-10.87-.776s.17-8.075,2.026-9.86.944-4.6.944-4.6,4.832-4.277,1.593-7.751c-4.166-4.467,11.024-79.911,16.267-79.164a19.969,19.969,0,0,1,14.26-15.233l11.74-3.232,2.085-8.271h16.531l2.879,5.435,12.568,5.672c2.367-3.34,4.136-6.86,13.83-8,0,0,26.12-23.766,24.845-25.621s2.774-6.2,2.774-6.2,3.458-1.132,1.507-1.736,1.737-2,1.737-2,3.416-.9,1.8-2.079,5.377-1.958,5.377-1.958l9.066,7.4-1.832,3.107s1.117,4.231-.341,2.686-1.733,2.938-1.733,2.938-.745,4.908-5.16,6.387-7.764,15.528-7.764,15.528c-10.414,13.54-22.7,24.1-37.268,31.056C695.885,426.905,690.468,492.625,690.468,492.625Z" transform="translate(-597.039 -335.68)" fill="#41b883"/>
  <circle id="Ellipse_38" data-name="Ellipse 38" cx="16.373" cy="16.373" r="16.373" transform="translate(45.011 14.516)" fill="#ffb6b6"/>
  <path id="Path_229" data-name="Path 229" d="M657.1,365.335c.518,3.558,3.551,8.522,2.841,8.522s-5.759-14.667-.71-15.623c3.662-.694,4.481-.085,7.9-1.569l-.483.454c2.265,1.648,5.418.632,8-.44s5.738-2.081,8.01-.44c1.427,1.03,2.031,2.819,2.919,4.339s2.528,2.968,4.218,2.5a3.339,3.339,0,0,0,2.13-3.3c-.007-1.406-1.838-2.744-1.221-4.005,1.827-3.738.184-6.287-3.8-8.046q-2.173-.33-4.346-.675a12.328,12.328,0,0,1,2.727-2.741,6.231,6.231,0,0,0-2.2-2.819,6.911,6.911,0,0,0-3.934-.568l-8.983.469a15.845,15.845,0,0,0-6.491,1.264c-2.471,1.271-4.09,3.749-5.269,6.27C655.774,354.591,656.193,359.15,657.1,365.335Z" transform="translate(-612.672 -332.663)" fill="#2f2e41"/>
</svg>
