<svg xmlns="http://www.w3.org/2000/svg" width="196.431" height="350.014" viewBox="0 0 196.431 350.014">
  <path id="Ellipse_29" data-name="Ellipse 29" d="M98.215,0c54.243,0,98.215,5.887,98.215,13.15S152.458,26.3,98.215,26.3,0,20.413,0,13.15,43.973,0,98.215,0Z" transform="translate(0 323.714)" fill="rgba(230,230,230,0.66)"/>
  <path id="Path_257" data-name="Path 257" d="M335.42,383.665h-9.629l-4.579-37.139h14.211Z" transform="translate(-170.996 -57.199)" fill="#ffb8b8"/>
  <path id="Path_258" data-name="Path 258" d="M316.289,387.355h18.569v11.689H304.6A11.689,11.689,0,0,1,316.289,387.355Z" transform="translate(-168.375 -63.641)" fill="#2f2e41"/>
  <path id="Path_259" data-name="Path 259" d="M218.625,383.665H209l-4.579-37.139h14.211Z" transform="translate(-152.57 -57.199)" fill="#ffb8b8"/>
  <path id="Path_260" data-name="Path 260" d="M199.5,387.355h18.569v11.689H187.806a11.689,11.689,0,0,1,11.689-11.689Z" transform="translate(-149.949 -63.641)" fill="#2f2e41"/>
  <path id="Path_261" data-name="Path 261" d="M487.471,238.014V233.8a27.162,27.162,0,0,1,27.162-27.162h0A27.162,27.162,0,0,1,541.8,233.8v4.211a19.579,19.579,0,0,1-19.579,19.579H507.053a19.579,19.579,0,0,1-19.579-19.579Z" transform="translate(-389.256 -187.034)" fill="#2f2e41"/>
  <ellipse id="Ellipse_36" data-name="Ellipse 36" cx="20.686" cy="20.686" rx="20.686" ry="20.686" transform="translate(104.692 30.638)" fill="#ffb8b8"/>
  <path id="Path_263" data-name="Path 263" d="M385.653,328.305a7.9,7.9,0,0,1,12.027,1.413l17.733-3.354,4.667,10.279-25.109,4.383a7.94,7.94,0,0,1-9.318-12.721Z" transform="translate(-372.795 -205.888)" fill="#ffb8b8"/>
  <path id="Path_264" data-name="Path 264" d="M485.6,284.1l.232.351L456.751,303.61l-49.067,15.668a2.954,2.954,0,0,0-2.032,3.149l1.07,9.22a2.949,2.949,0,0,0,3.546,2.542l46.18-9.9a16.681,16.681,0,0,0,6.21-2.734l32.663-23.243a8.4,8.4,0,1,0-9.5-13.859Z" transform="translate(-376.345 -199.065)" fill="#41b883"/>
  <path id="Path_265" data-name="Path 265" d="M535.015,525.018a3.805,3.805,0,0,1-3.486-2.276L487.388,413.67a1.263,1.263,0,0,0-2.366.133L449.01,519.99a3.791,3.791,0,0,1-4.954,2.435L431.98,517.9a3.781,3.781,0,0,1-2.44-3.12c-5.433-47.327,41.943-166.786,42.423-167.989l.133-.332,43.188,9.553.09.1c17.23,18.8,31.393,137.353,34.057,160.929a3.772,3.772,0,0,1-2.5,4l-10.66,3.77a3.753,3.753,0,0,1-1.254.216Z" transform="translate(-380.048 -209.091)" fill="#2f2e41"/>
  <path id="Path_266" data-name="Path 266" d="M505.642,348.4c-10.464,0-22.129-2.086-25.72-10.7l-.083-.2.112-.183c2.835-4.651,6.58-12.583,4.567-14.073-3.966-2.932-5.891-7.757-5.72-14.339.371-14.289,10.107-26.976,24.227-31.569h0a107.491,107.491,0,0,1,12.013-3.093,20.45,20.45,0,0,1,16.956,4.188,20.657,20.657,0,0,1,7.661,15.893c.146,15.269-2.2,36.539-14.246,51.139a3.746,3.746,0,0,1-2.218,1.289,102.937,102.937,0,0,1-17.549,1.643Z" transform="translate(-387.886 -197.637)" fill="#41b883"/>
  <path id="Path_267" data-name="Path 267" d="M505.995,358.422a8.049,8.049,0,0,1,9.836-5.613,7.921,7.921,0,0,1,1.219.452l13.464-12.254,9.364,6.308-19.255,17.04a8.036,8.036,0,0,1-9.107,3.863,7.912,7.912,0,0,1-5.521-9.8Z" transform="translate(-392.13 -208.232)" fill="#ffb8b8"/>
  <path id="Path_268" data-name="Path 268" d="M530.927,349.477a3.78,3.78,0,0,1-2.4-.858l-5.309-4.338a3.79,3.79,0,0,1,.092-5.942l22.27-17.08a1.266,1.266,0,0,0,.239-1.764l-13.745-18.173a11.189,11.189,0,0,1,.747-14.415h0a11.158,11.158,0,0,1,15.066-1.2l.087.092,14.353,20.553a12.8,12.8,0,0,1-.3,20.37l-28.843,22.015a3.8,3.8,0,0,1-2.256.743Z" transform="translate(-394.675 -199.132)" fill="#41b883"/>
  <path id="Path_269" data-name="Path 269" d="M497.965,233.968V223.7l18.324-8,17.472,8v10.264a1.685,1.685,0,0,1-1.685,1.685H499.65a1.685,1.685,0,0,1-1.685-1.685Z" transform="translate(-390.911 -188.462)" fill="#2f2e41"/>
  <ellipse id="Ellipse_30" data-name="Ellipse 30" cx="11.486" cy="11.486" rx="11.486" ry="11.486" transform="translate(129.568 7.034)" fill="#2f2e41"/>
  <path id="Path_185" data-name="Path 185" d="M895.526,214.248a11.481,11.481,0,0,1,13.734-11.263,11.481,11.481,0,1,0-7.133,21.646,11.476,11.476,0,0,1-6.6-10.383Z" transform="translate(-765.074 -201.89)" fill="#2f2e41"/>
</svg>
