<svg id="Layer_2" data-name="Layer 2" xmlns="http://www.w3.org/2000/svg" viewBox="0 0 352 352"><defs><style>.cls-1{fill:none;stroke:#231f20;stroke-linecap:round;stroke-miterlimit:10;stroke-width:18px;}</style></defs><line class="cls-1" x1="292.26" y1="102.59" x2="270.43" y2="102.59"/><line class="cls-1" x1="225.49" y1="102.59" x2="56.34" y2="102.59"/><line class="cls-1" x1="292.26" y1="176.69" x2="128.47" y2="176.69"/><line class="cls-1" x1="83.53" y1="176.69" x2="56.34" y2="176.69"/><line class="cls-1" x1="292.26" y1="249.14" x2="219.02" y2="249.14"/><line class="cls-1" x1="174.09" y1="249.14" x2="56.34" y2="249.14"/><path class="cls-1" d="M270.43,102.59A22.47,22.47,0,1,1,248,80.12,22.47,22.47,0,0,1,270.43,102.59Z"/><circle class="cls-1" cx="106" cy="176.69" r="22.47" transform="matrix(0.92, -0.38, 0.38, 0.92, -59.55, 54.01)"/><path class="cls-1" d="M219,249.14a22.47,22.47,0,1,1-22.47-22.46A22.47,22.47,0,0,1,219,249.14Z"/></svg>