<svg xmlns="http://www.w3.org/2000/svg" version="1.1" xmlns:xlink="http://www.w3.org/1999/xlink" xmlns:svgjs="http://svgjs.com/svgjs" width="1440" height="560" preserveAspectRatio="none" viewBox="0 0 1440 560"><g mask="url(&quot;#SvgjsMask1068&quot;)" fill="none"><rect width="1440" height="560" x="0" y="0" fill="rgba(52, 85, 118, 1)"></rect><path d="M 0,232 C 96,200 288,68 480,72 C 672,76 768,255 960,252 C 1152,249 1344,96 1440,57L1440 560L0 560z" fill="rgba(52, 80, 110, 1)"></path><path d="M 0,490 C 72,460.8 216,353 360,344 C 504,335 576,433.4 720,445 C 864,456.6 936,388.8 1080,402 C 1224,415.2 1368,489.2 1440,511L1440 560L0 560z" fill="rgba(52, 73, 94, 1)"></path></g><defs><mask id="SvgjsMask1068"><rect width="1440" height="560" fill="#ffffff"></rect></mask></defs></svg>