<?xml version="1.0" encoding="UTF-8"?><svg id="a" xmlns="http://www.w3.org/2000/svg" viewBox="0 0 352.55 351.3"><defs><style>.b{fill:#41b783;}</style></defs><path class="b" d="M.2,0H205.75c53.6,9.53,95.76,51.3,105.42,104.17,10.07,55.12-17.22,111.22-67.4,137.87l108.78,108.78c-24.91,1.58-63.04,.2-101.7-19.23-20.8-10.45-34.14-22.29-45.88-32.87-43.81-39.46-84.47-76.79-122.04-111.83h107.23c25.89-3.36,46.78-22.02,52.09-45.96,6.22-28.06-10.12-58.23-39.24-69.3-44.63-.27-89.26-.54-133.89-.81-4.54,.33-27.86,1.55-47.46-15.67C-2.44,33.98-.1,3.23,.2,0Z"/></svg>